<mxfile host="app.diagrams.net" modified="2023-10-29T18:11:56.419Z" agent="Mozilla/5.0 (Windows NT 10.0; Win64; x64) AppleWebKit/537.36 (KHTML, like Gecko) Chrome/116.0.5845.931 YaBrowser/23.9.3.931 Yowser/2.5 Safari/537.36" etag="aokFFDY0N2MRKkA_65uN" version="22.0.8" type="device">
  <diagram id="R2lEEEUBdFMjLlhIrx00" name="Page-1">
    <mxGraphModel dx="2512" dy="1112" grid="1" gridSize="10" guides="1" tooltips="1" connect="1" arrows="1" fold="1" page="1" pageScale="1" pageWidth="1100" pageHeight="850" math="0" shadow="0" extFonts="Permanent Marker^https://fonts.googleapis.com/css?family=Permanent+Marker">
      <root>
        <mxCell id="0" />
        <mxCell id="1" parent="0" />
        <mxCell id="C-vyLk0tnHw3VtMMgP7b-1" value="" style="edgeStyle=elbowEdgeStyle;endArrow=ERoneToMany;startArrow=ERmandOne;endFill=0;startFill=0;jumpStyle=line;labelBackgroundColor=none;strokeColor=#A8201A;fontColor=default;" parent="1" source="C-vyLk0tnHw3VtMMgP7b-24" target="C-vyLk0tnHw3VtMMgP7b-6" edge="1">
          <mxGeometry width="100" height="100" relative="1" as="geometry">
            <mxPoint x="-350" y="700" as="sourcePoint" />
            <mxPoint x="-250" y="600" as="targetPoint" />
            <Array as="points">
              <mxPoint x="-630" y="230" />
            </Array>
          </mxGeometry>
        </mxCell>
        <mxCell id="C-vyLk0tnHw3VtMMgP7b-12" value="" style="edgeStyle=orthogonalEdgeStyle;endArrow=ERmandOne;startArrow=ERoneToMany;endFill=0;startFill=0;jumpStyle=line;labelBackgroundColor=none;strokeColor=#A8201A;fontColor=default;" parent="1" source="C-vyLk0tnHw3VtMMgP7b-9" target="C-vyLk0tnHw3VtMMgP7b-14" edge="1">
          <mxGeometry width="100" height="100" relative="1" as="geometry">
            <mxPoint x="-290" y="160" as="sourcePoint" />
            <mxPoint x="-230" y="185" as="targetPoint" />
            <Array as="points">
              <mxPoint x="-660" y="395" />
              <mxPoint x="-660" y="175" />
            </Array>
          </mxGeometry>
        </mxCell>
        <mxCell id="C-vyLk0tnHw3VtMMgP7b-13" value="Virtual_machine" style="shape=table;startSize=30;container=1;collapsible=1;childLayout=tableLayout;fixedRows=1;rowLines=0;fontStyle=1;align=center;resizeLast=1;labelBackgroundColor=none;fillColor=#FAE5C7;strokeColor=#0F8B8D;fontColor=#143642;rounded=1;" parent="1" vertex="1">
          <mxGeometry x="-870" y="115" width="160" height="210" as="geometry" />
        </mxCell>
        <mxCell id="C-vyLk0tnHw3VtMMgP7b-14" value="" style="shape=partialRectangle;collapsible=0;dropTarget=0;pointerEvents=0;fillColor=none;points=[[0,0.5],[1,0.5]];portConstraint=eastwest;top=0;left=0;right=0;bottom=1;labelBackgroundColor=none;strokeColor=#0F8B8D;fontColor=#143642;rounded=1;" parent="C-vyLk0tnHw3VtMMgP7b-13" vertex="1">
          <mxGeometry y="30" width="160" height="30" as="geometry" />
        </mxCell>
        <mxCell id="C-vyLk0tnHw3VtMMgP7b-15" value="PK" style="shape=partialRectangle;overflow=hidden;connectable=0;fillColor=none;top=0;left=0;bottom=0;right=0;fontStyle=1;labelBackgroundColor=none;strokeColor=#0F8B8D;fontColor=#143642;rounded=1;" parent="C-vyLk0tnHw3VtMMgP7b-14" vertex="1">
          <mxGeometry width="30" height="30" as="geometry">
            <mxRectangle width="30" height="30" as="alternateBounds" />
          </mxGeometry>
        </mxCell>
        <mxCell id="C-vyLk0tnHw3VtMMgP7b-16" value="ID" style="shape=partialRectangle;overflow=hidden;connectable=0;fillColor=none;top=0;left=0;bottom=0;right=0;align=left;spacingLeft=6;fontStyle=5;labelBackgroundColor=none;strokeColor=#0F8B8D;fontColor=#143642;rounded=1;" parent="C-vyLk0tnHw3VtMMgP7b-14" vertex="1">
          <mxGeometry x="30" width="130" height="30" as="geometry">
            <mxRectangle width="130" height="30" as="alternateBounds" />
          </mxGeometry>
        </mxCell>
        <mxCell id="C-vyLk0tnHw3VtMMgP7b-17" value="" style="shape=partialRectangle;collapsible=0;dropTarget=0;pointerEvents=0;fillColor=none;points=[[0,0.5],[1,0.5]];portConstraint=eastwest;top=0;left=0;right=0;bottom=0;labelBackgroundColor=none;strokeColor=#0F8B8D;fontColor=#143642;rounded=1;" parent="C-vyLk0tnHw3VtMMgP7b-13" vertex="1">
          <mxGeometry y="60" width="160" height="30" as="geometry" />
        </mxCell>
        <mxCell id="C-vyLk0tnHw3VtMMgP7b-18" value="" style="shape=partialRectangle;overflow=hidden;connectable=0;fillColor=none;top=0;left=0;bottom=0;right=0;labelBackgroundColor=none;strokeColor=#0F8B8D;fontColor=#143642;rounded=1;" parent="C-vyLk0tnHw3VtMMgP7b-17" vertex="1">
          <mxGeometry width="30" height="30" as="geometry">
            <mxRectangle width="30" height="30" as="alternateBounds" />
          </mxGeometry>
        </mxCell>
        <mxCell id="C-vyLk0tnHw3VtMMgP7b-19" value="RAM" style="shape=partialRectangle;overflow=hidden;connectable=0;fillColor=none;top=0;left=0;bottom=0;right=0;align=left;spacingLeft=6;labelBackgroundColor=none;strokeColor=#0F8B8D;fontColor=#143642;rounded=1;" parent="C-vyLk0tnHw3VtMMgP7b-17" vertex="1">
          <mxGeometry x="30" width="130" height="30" as="geometry">
            <mxRectangle width="130" height="30" as="alternateBounds" />
          </mxGeometry>
        </mxCell>
        <mxCell id="C-vyLk0tnHw3VtMMgP7b-20" value="" style="shape=partialRectangle;collapsible=0;dropTarget=0;pointerEvents=0;fillColor=none;points=[[0,0.5],[1,0.5]];portConstraint=eastwest;top=0;left=0;right=0;bottom=0;labelBackgroundColor=none;strokeColor=#0F8B8D;fontColor=#143642;rounded=1;" parent="C-vyLk0tnHw3VtMMgP7b-13" vertex="1">
          <mxGeometry y="90" width="160" height="30" as="geometry" />
        </mxCell>
        <mxCell id="C-vyLk0tnHw3VtMMgP7b-21" value="" style="shape=partialRectangle;overflow=hidden;connectable=0;fillColor=none;top=0;left=0;bottom=0;right=0;labelBackgroundColor=none;strokeColor=#0F8B8D;fontColor=#143642;rounded=1;" parent="C-vyLk0tnHw3VtMMgP7b-20" vertex="1">
          <mxGeometry width="30" height="30" as="geometry">
            <mxRectangle width="30" height="30" as="alternateBounds" />
          </mxGeometry>
        </mxCell>
        <mxCell id="C-vyLk0tnHw3VtMMgP7b-22" value="CPU" style="shape=partialRectangle;overflow=hidden;connectable=0;fillColor=none;top=0;left=0;bottom=0;right=0;align=left;spacingLeft=6;labelBackgroundColor=none;strokeColor=#0F8B8D;fontColor=#143642;rounded=1;" parent="C-vyLk0tnHw3VtMMgP7b-20" vertex="1">
          <mxGeometry x="30" width="130" height="30" as="geometry">
            <mxRectangle width="130" height="30" as="alternateBounds" />
          </mxGeometry>
        </mxCell>
        <mxCell id="rhaK6J0jzwpchskZCCZA-159" value="" style="shape=tableRow;horizontal=0;startSize=0;swimlaneHead=0;swimlaneBody=0;fillColor=none;collapsible=0;dropTarget=0;points=[[0,0.5],[1,0.5]];portConstraint=eastwest;top=0;left=0;right=0;bottom=0;labelBackgroundColor=none;strokeColor=#0F8B8D;fontColor=#143642;rounded=1;" vertex="1" parent="C-vyLk0tnHw3VtMMgP7b-13">
          <mxGeometry y="120" width="160" height="30" as="geometry" />
        </mxCell>
        <mxCell id="rhaK6J0jzwpchskZCCZA-160" value="" style="shape=partialRectangle;connectable=0;fillColor=none;top=0;left=0;bottom=0;right=0;editable=1;overflow=hidden;labelBackgroundColor=none;strokeColor=#0F8B8D;fontColor=#143642;rounded=1;" vertex="1" parent="rhaK6J0jzwpchskZCCZA-159">
          <mxGeometry width="30" height="30" as="geometry">
            <mxRectangle width="30" height="30" as="alternateBounds" />
          </mxGeometry>
        </mxCell>
        <mxCell id="rhaK6J0jzwpchskZCCZA-161" value="SSD" style="shape=partialRectangle;connectable=0;fillColor=none;top=0;left=0;bottom=0;right=0;align=left;spacingLeft=6;overflow=hidden;labelBackgroundColor=none;strokeColor=#0F8B8D;fontColor=#143642;rounded=1;" vertex="1" parent="rhaK6J0jzwpchskZCCZA-159">
          <mxGeometry x="30" width="130" height="30" as="geometry">
            <mxRectangle width="130" height="30" as="alternateBounds" />
          </mxGeometry>
        </mxCell>
        <mxCell id="rhaK6J0jzwpchskZCCZA-3" value="" style="shape=tableRow;horizontal=0;startSize=0;swimlaneHead=0;swimlaneBody=0;fillColor=none;collapsible=0;dropTarget=0;points=[[0,0.5],[1,0.5]];portConstraint=eastwest;top=0;left=0;right=0;bottom=0;labelBackgroundColor=none;strokeColor=#0F8B8D;fontColor=#143642;rounded=1;" vertex="1" parent="C-vyLk0tnHw3VtMMgP7b-13">
          <mxGeometry y="150" width="160" height="30" as="geometry" />
        </mxCell>
        <mxCell id="rhaK6J0jzwpchskZCCZA-4" value="" style="shape=partialRectangle;connectable=0;fillColor=none;top=0;left=0;bottom=0;right=0;editable=1;overflow=hidden;labelBackgroundColor=none;strokeColor=#0F8B8D;fontColor=#143642;rounded=1;" vertex="1" parent="rhaK6J0jzwpchskZCCZA-3">
          <mxGeometry width="30" height="30" as="geometry">
            <mxRectangle width="30" height="30" as="alternateBounds" />
          </mxGeometry>
        </mxCell>
        <mxCell id="rhaK6J0jzwpchskZCCZA-5" value="SSD" style="shape=partialRectangle;connectable=0;fillColor=none;top=0;left=0;bottom=0;right=0;align=left;spacingLeft=6;overflow=hidden;labelBackgroundColor=none;strokeColor=#0F8B8D;fontColor=#143642;rounded=1;" vertex="1" parent="rhaK6J0jzwpchskZCCZA-3">
          <mxGeometry x="30" width="130" height="30" as="geometry">
            <mxRectangle width="130" height="30" as="alternateBounds" />
          </mxGeometry>
        </mxCell>
        <mxCell id="rhaK6J0jzwpchskZCCZA-11" value="" style="shape=tableRow;horizontal=0;startSize=0;swimlaneHead=0;swimlaneBody=0;fillColor=none;collapsible=0;dropTarget=0;points=[[0,0.5],[1,0.5]];portConstraint=eastwest;top=0;left=0;right=0;bottom=0;labelBackgroundColor=none;strokeColor=#0F8B8D;fontColor=#143642;rounded=1;" vertex="1" parent="C-vyLk0tnHw3VtMMgP7b-13">
          <mxGeometry y="180" width="160" height="30" as="geometry" />
        </mxCell>
        <mxCell id="rhaK6J0jzwpchskZCCZA-12" value="" style="shape=partialRectangle;connectable=0;fillColor=none;top=0;left=0;bottom=0;right=0;editable=1;overflow=hidden;labelBackgroundColor=none;strokeColor=#0F8B8D;fontColor=#143642;rounded=1;" vertex="1" parent="rhaK6J0jzwpchskZCCZA-11">
          <mxGeometry width="30" height="30" as="geometry">
            <mxRectangle width="30" height="30" as="alternateBounds" />
          </mxGeometry>
        </mxCell>
        <mxCell id="rhaK6J0jzwpchskZCCZA-13" value="Server_ID" style="shape=partialRectangle;connectable=0;fillColor=none;top=0;left=0;bottom=0;right=0;align=left;spacingLeft=6;overflow=hidden;labelBackgroundColor=none;strokeColor=#0F8B8D;fontColor=#143642;rounded=1;" vertex="1" parent="rhaK6J0jzwpchskZCCZA-11">
          <mxGeometry x="30" width="130" height="30" as="geometry">
            <mxRectangle width="130" height="30" as="alternateBounds" />
          </mxGeometry>
        </mxCell>
        <mxCell id="C-vyLk0tnHw3VtMMgP7b-23" value="Customers" style="shape=table;startSize=30;container=1;collapsible=1;childLayout=tableLayout;fixedRows=1;rowLines=0;fontStyle=1;align=center;resizeLast=1;labelBackgroundColor=none;fillColor=#FAE5C7;strokeColor=#0F8B8D;fontColor=#143642;rounded=1;" parent="1" vertex="1">
          <mxGeometry x="-570" y="40" width="160" height="210" as="geometry" />
        </mxCell>
        <mxCell id="C-vyLk0tnHw3VtMMgP7b-24" value="" style="shape=partialRectangle;collapsible=0;dropTarget=0;pointerEvents=0;fillColor=none;points=[[0,0.5],[1,0.5]];portConstraint=eastwest;top=0;left=0;right=0;bottom=1;labelBackgroundColor=none;strokeColor=#0F8B8D;fontColor=#143642;rounded=1;" parent="C-vyLk0tnHw3VtMMgP7b-23" vertex="1">
          <mxGeometry y="30" width="160" height="30" as="geometry" />
        </mxCell>
        <mxCell id="C-vyLk0tnHw3VtMMgP7b-25" value="PK" style="shape=partialRectangle;overflow=hidden;connectable=0;fillColor=none;top=0;left=0;bottom=0;right=0;fontStyle=1;labelBackgroundColor=none;strokeColor=#0F8B8D;fontColor=#143642;rounded=1;" parent="C-vyLk0tnHw3VtMMgP7b-24" vertex="1">
          <mxGeometry width="30" height="30" as="geometry">
            <mxRectangle width="30" height="30" as="alternateBounds" />
          </mxGeometry>
        </mxCell>
        <mxCell id="C-vyLk0tnHw3VtMMgP7b-26" value="ID" style="shape=partialRectangle;overflow=hidden;connectable=0;fillColor=none;top=0;left=0;bottom=0;right=0;align=left;spacingLeft=6;fontStyle=5;labelBackgroundColor=none;strokeColor=#0F8B8D;fontColor=#143642;rounded=1;" parent="C-vyLk0tnHw3VtMMgP7b-24" vertex="1">
          <mxGeometry x="30" width="130" height="30" as="geometry">
            <mxRectangle width="130" height="30" as="alternateBounds" />
          </mxGeometry>
        </mxCell>
        <mxCell id="C-vyLk0tnHw3VtMMgP7b-27" value="" style="shape=partialRectangle;collapsible=0;dropTarget=0;pointerEvents=0;fillColor=none;points=[[0,0.5],[1,0.5]];portConstraint=eastwest;top=0;left=0;right=0;bottom=0;labelBackgroundColor=none;strokeColor=#0F8B8D;fontColor=#143642;rounded=1;" parent="C-vyLk0tnHw3VtMMgP7b-23" vertex="1">
          <mxGeometry y="60" width="160" height="30" as="geometry" />
        </mxCell>
        <mxCell id="C-vyLk0tnHw3VtMMgP7b-28" value="" style="shape=partialRectangle;overflow=hidden;connectable=0;fillColor=none;top=0;left=0;bottom=0;right=0;labelBackgroundColor=none;strokeColor=#0F8B8D;fontColor=#143642;rounded=1;" parent="C-vyLk0tnHw3VtMMgP7b-27" vertex="1">
          <mxGeometry width="30" height="30" as="geometry">
            <mxRectangle width="30" height="30" as="alternateBounds" />
          </mxGeometry>
        </mxCell>
        <mxCell id="C-vyLk0tnHw3VtMMgP7b-29" value="Name" style="shape=partialRectangle;overflow=hidden;connectable=0;fillColor=none;top=0;left=0;bottom=0;right=0;align=left;spacingLeft=6;labelBackgroundColor=none;strokeColor=#0F8B8D;fontColor=#143642;rounded=1;" parent="C-vyLk0tnHw3VtMMgP7b-27" vertex="1">
          <mxGeometry x="30" width="130" height="30" as="geometry">
            <mxRectangle width="130" height="30" as="alternateBounds" />
          </mxGeometry>
        </mxCell>
        <mxCell id="rhaK6J0jzwpchskZCCZA-40" value="" style="shape=tableRow;horizontal=0;startSize=0;swimlaneHead=0;swimlaneBody=0;fillColor=none;collapsible=0;dropTarget=0;points=[[0,0.5],[1,0.5]];portConstraint=eastwest;top=0;left=0;right=0;bottom=0;labelBackgroundColor=none;strokeColor=#0F8B8D;fontColor=#143642;rounded=1;" vertex="1" parent="C-vyLk0tnHw3VtMMgP7b-23">
          <mxGeometry y="90" width="160" height="30" as="geometry" />
        </mxCell>
        <mxCell id="rhaK6J0jzwpchskZCCZA-41" value="" style="shape=partialRectangle;connectable=0;fillColor=none;top=0;left=0;bottom=0;right=0;editable=1;overflow=hidden;labelBackgroundColor=none;strokeColor=#0F8B8D;fontColor=#143642;rounded=1;" vertex="1" parent="rhaK6J0jzwpchskZCCZA-40">
          <mxGeometry width="30" height="30" as="geometry">
            <mxRectangle width="30" height="30" as="alternateBounds" />
          </mxGeometry>
        </mxCell>
        <mxCell id="rhaK6J0jzwpchskZCCZA-42" value="Email" style="shape=partialRectangle;connectable=0;fillColor=none;top=0;left=0;bottom=0;right=0;align=left;spacingLeft=6;overflow=hidden;labelBackgroundColor=none;strokeColor=#0F8B8D;fontColor=#143642;rounded=1;" vertex="1" parent="rhaK6J0jzwpchskZCCZA-40">
          <mxGeometry x="30" width="130" height="30" as="geometry">
            <mxRectangle width="130" height="30" as="alternateBounds" />
          </mxGeometry>
        </mxCell>
        <mxCell id="rhaK6J0jzwpchskZCCZA-36" value="" style="shape=tableRow;horizontal=0;startSize=0;swimlaneHead=0;swimlaneBody=0;fillColor=none;collapsible=0;dropTarget=0;points=[[0,0.5],[1,0.5]];portConstraint=eastwest;top=0;left=0;right=0;bottom=0;labelBackgroundColor=none;strokeColor=#0F8B8D;fontColor=#143642;rounded=1;" vertex="1" parent="C-vyLk0tnHw3VtMMgP7b-23">
          <mxGeometry y="120" width="160" height="30" as="geometry" />
        </mxCell>
        <mxCell id="rhaK6J0jzwpchskZCCZA-37" value="" style="shape=partialRectangle;connectable=0;fillColor=none;top=0;left=0;bottom=0;right=0;editable=1;overflow=hidden;labelBackgroundColor=none;strokeColor=#0F8B8D;fontColor=#143642;rounded=1;" vertex="1" parent="rhaK6J0jzwpchskZCCZA-36">
          <mxGeometry width="30" height="30" as="geometry">
            <mxRectangle width="30" height="30" as="alternateBounds" />
          </mxGeometry>
        </mxCell>
        <mxCell id="rhaK6J0jzwpchskZCCZA-38" value="Password" style="shape=partialRectangle;connectable=0;fillColor=none;top=0;left=0;bottom=0;right=0;align=left;spacingLeft=6;overflow=hidden;labelBackgroundColor=none;strokeColor=#0F8B8D;fontColor=#143642;rounded=1;" vertex="1" parent="rhaK6J0jzwpchskZCCZA-36">
          <mxGeometry x="30" width="130" height="30" as="geometry">
            <mxRectangle width="130" height="30" as="alternateBounds" />
          </mxGeometry>
        </mxCell>
        <mxCell id="rhaK6J0jzwpchskZCCZA-32" value="" style="shape=tableRow;horizontal=0;startSize=0;swimlaneHead=0;swimlaneBody=0;fillColor=none;collapsible=0;dropTarget=0;points=[[0,0.5],[1,0.5]];portConstraint=eastwest;top=0;left=0;right=0;bottom=0;labelBackgroundColor=none;strokeColor=#0F8B8D;fontColor=#143642;rounded=1;" vertex="1" parent="C-vyLk0tnHw3VtMMgP7b-23">
          <mxGeometry y="150" width="160" height="30" as="geometry" />
        </mxCell>
        <mxCell id="rhaK6J0jzwpchskZCCZA-33" value="" style="shape=partialRectangle;connectable=0;fillColor=none;top=0;left=0;bottom=0;right=0;editable=1;overflow=hidden;labelBackgroundColor=none;strokeColor=#0F8B8D;fontColor=#143642;rounded=1;" vertex="1" parent="rhaK6J0jzwpchskZCCZA-32">
          <mxGeometry width="30" height="30" as="geometry">
            <mxRectangle width="30" height="30" as="alternateBounds" />
          </mxGeometry>
        </mxCell>
        <mxCell id="rhaK6J0jzwpchskZCCZA-34" value="Phone" style="shape=partialRectangle;connectable=0;fillColor=none;top=0;left=0;bottom=0;right=0;align=left;spacingLeft=6;overflow=hidden;labelBackgroundColor=none;strokeColor=#0F8B8D;fontColor=#143642;rounded=1;" vertex="1" parent="rhaK6J0jzwpchskZCCZA-32">
          <mxGeometry x="30" width="130" height="30" as="geometry">
            <mxRectangle width="130" height="30" as="alternateBounds" />
          </mxGeometry>
        </mxCell>
        <mxCell id="rhaK6J0jzwpchskZCCZA-130" value="" style="shape=tableRow;horizontal=0;startSize=0;swimlaneHead=0;swimlaneBody=0;fillColor=none;collapsible=0;dropTarget=0;points=[[0,0.5],[1,0.5]];portConstraint=eastwest;top=0;left=0;right=0;bottom=0;labelBackgroundColor=none;strokeColor=#0F8B8D;fontColor=#143642;rounded=1;" vertex="1" parent="C-vyLk0tnHw3VtMMgP7b-23">
          <mxGeometry y="180" width="160" height="30" as="geometry" />
        </mxCell>
        <mxCell id="rhaK6J0jzwpchskZCCZA-131" value="" style="shape=partialRectangle;connectable=0;fillColor=none;top=0;left=0;bottom=0;right=0;editable=1;overflow=hidden;labelBackgroundColor=none;strokeColor=#0F8B8D;fontColor=#143642;rounded=1;" vertex="1" parent="rhaK6J0jzwpchskZCCZA-130">
          <mxGeometry width="30" height="30" as="geometry">
            <mxRectangle width="30" height="30" as="alternateBounds" />
          </mxGeometry>
        </mxCell>
        <mxCell id="rhaK6J0jzwpchskZCCZA-132" value="Additional_information" style="shape=partialRectangle;connectable=0;fillColor=none;top=0;left=0;bottom=0;right=0;align=left;spacingLeft=6;overflow=hidden;labelBackgroundColor=none;strokeColor=#0F8B8D;fontColor=#143642;rounded=1;" vertex="1" parent="rhaK6J0jzwpchskZCCZA-130">
          <mxGeometry x="30" width="130" height="30" as="geometry">
            <mxRectangle width="130" height="30" as="alternateBounds" />
          </mxGeometry>
        </mxCell>
        <mxCell id="rhaK6J0jzwpchskZCCZA-14" value="Server" style="shape=table;startSize=30;container=1;collapsible=1;childLayout=tableLayout;fixedRows=1;rowLines=0;fontStyle=1;align=center;resizeLast=1;labelBackgroundColor=none;fillColor=#FAE5C7;strokeColor=#0F8B8D;fontColor=#143642;rounded=1;" vertex="1" parent="1">
          <mxGeometry x="-870" y="355" width="160" height="150" as="geometry" />
        </mxCell>
        <mxCell id="rhaK6J0jzwpchskZCCZA-15" value="" style="shape=partialRectangle;collapsible=0;dropTarget=0;pointerEvents=0;fillColor=none;points=[[0,0.5],[1,0.5]];portConstraint=eastwest;top=0;left=0;right=0;bottom=1;labelBackgroundColor=none;strokeColor=#0F8B8D;fontColor=#143642;rounded=1;" vertex="1" parent="rhaK6J0jzwpchskZCCZA-14">
          <mxGeometry y="30" width="160" height="30" as="geometry" />
        </mxCell>
        <mxCell id="rhaK6J0jzwpchskZCCZA-16" value="PK" style="shape=partialRectangle;overflow=hidden;connectable=0;fillColor=none;top=0;left=0;bottom=0;right=0;fontStyle=1;labelBackgroundColor=none;strokeColor=#0F8B8D;fontColor=#143642;rounded=1;" vertex="1" parent="rhaK6J0jzwpchskZCCZA-15">
          <mxGeometry width="30" height="30" as="geometry">
            <mxRectangle width="30" height="30" as="alternateBounds" />
          </mxGeometry>
        </mxCell>
        <mxCell id="rhaK6J0jzwpchskZCCZA-17" value="ID" style="shape=partialRectangle;overflow=hidden;connectable=0;fillColor=none;top=0;left=0;bottom=0;right=0;align=left;spacingLeft=6;fontStyle=5;labelBackgroundColor=none;strokeColor=#0F8B8D;fontColor=#143642;rounded=1;" vertex="1" parent="rhaK6J0jzwpchskZCCZA-15">
          <mxGeometry x="30" width="130" height="30" as="geometry">
            <mxRectangle width="130" height="30" as="alternateBounds" />
          </mxGeometry>
        </mxCell>
        <mxCell id="rhaK6J0jzwpchskZCCZA-18" value="" style="shape=partialRectangle;collapsible=0;dropTarget=0;pointerEvents=0;fillColor=none;points=[[0,0.5],[1,0.5]];portConstraint=eastwest;top=0;left=0;right=0;bottom=0;labelBackgroundColor=none;strokeColor=#0F8B8D;fontColor=#143642;rounded=1;" vertex="1" parent="rhaK6J0jzwpchskZCCZA-14">
          <mxGeometry y="60" width="160" height="30" as="geometry" />
        </mxCell>
        <mxCell id="rhaK6J0jzwpchskZCCZA-19" value="" style="shape=partialRectangle;overflow=hidden;connectable=0;fillColor=none;top=0;left=0;bottom=0;right=0;labelBackgroundColor=none;strokeColor=#0F8B8D;fontColor=#143642;rounded=1;" vertex="1" parent="rhaK6J0jzwpchskZCCZA-18">
          <mxGeometry width="30" height="30" as="geometry">
            <mxRectangle width="30" height="30" as="alternateBounds" />
          </mxGeometry>
        </mxCell>
        <mxCell id="rhaK6J0jzwpchskZCCZA-20" value="RAM" style="shape=partialRectangle;overflow=hidden;connectable=0;fillColor=none;top=0;left=0;bottom=0;right=0;align=left;spacingLeft=6;labelBackgroundColor=none;strokeColor=#0F8B8D;fontColor=#143642;rounded=1;" vertex="1" parent="rhaK6J0jzwpchskZCCZA-18">
          <mxGeometry x="30" width="130" height="30" as="geometry">
            <mxRectangle width="130" height="30" as="alternateBounds" />
          </mxGeometry>
        </mxCell>
        <mxCell id="rhaK6J0jzwpchskZCCZA-21" value="" style="shape=partialRectangle;collapsible=0;dropTarget=0;pointerEvents=0;fillColor=none;points=[[0,0.5],[1,0.5]];portConstraint=eastwest;top=0;left=0;right=0;bottom=0;labelBackgroundColor=none;strokeColor=#0F8B8D;fontColor=#143642;rounded=1;" vertex="1" parent="rhaK6J0jzwpchskZCCZA-14">
          <mxGeometry y="90" width="160" height="30" as="geometry" />
        </mxCell>
        <mxCell id="rhaK6J0jzwpchskZCCZA-22" value="" style="shape=partialRectangle;overflow=hidden;connectable=0;fillColor=none;top=0;left=0;bottom=0;right=0;labelBackgroundColor=none;strokeColor=#0F8B8D;fontColor=#143642;rounded=1;" vertex="1" parent="rhaK6J0jzwpchskZCCZA-21">
          <mxGeometry width="30" height="30" as="geometry">
            <mxRectangle width="30" height="30" as="alternateBounds" />
          </mxGeometry>
        </mxCell>
        <mxCell id="rhaK6J0jzwpchskZCCZA-23" value="CPU" style="shape=partialRectangle;overflow=hidden;connectable=0;fillColor=none;top=0;left=0;bottom=0;right=0;align=left;spacingLeft=6;labelBackgroundColor=none;strokeColor=#0F8B8D;fontColor=#143642;rounded=1;" vertex="1" parent="rhaK6J0jzwpchskZCCZA-21">
          <mxGeometry x="30" width="130" height="30" as="geometry">
            <mxRectangle width="130" height="30" as="alternateBounds" />
          </mxGeometry>
        </mxCell>
        <mxCell id="rhaK6J0jzwpchskZCCZA-24" value="" style="shape=tableRow;horizontal=0;startSize=0;swimlaneHead=0;swimlaneBody=0;fillColor=none;collapsible=0;dropTarget=0;points=[[0,0.5],[1,0.5]];portConstraint=eastwest;top=0;left=0;right=0;bottom=0;labelBackgroundColor=none;strokeColor=#0F8B8D;fontColor=#143642;rounded=1;" vertex="1" parent="rhaK6J0jzwpchskZCCZA-14">
          <mxGeometry y="120" width="160" height="30" as="geometry" />
        </mxCell>
        <mxCell id="rhaK6J0jzwpchskZCCZA-25" value="" style="shape=partialRectangle;connectable=0;fillColor=none;top=0;left=0;bottom=0;right=0;editable=1;overflow=hidden;labelBackgroundColor=none;strokeColor=#0F8B8D;fontColor=#143642;rounded=1;" vertex="1" parent="rhaK6J0jzwpchskZCCZA-24">
          <mxGeometry width="30" height="30" as="geometry">
            <mxRectangle width="30" height="30" as="alternateBounds" />
          </mxGeometry>
        </mxCell>
        <mxCell id="rhaK6J0jzwpchskZCCZA-26" value="SSD" style="shape=partialRectangle;connectable=0;fillColor=none;top=0;left=0;bottom=0;right=0;align=left;spacingLeft=6;overflow=hidden;labelBackgroundColor=none;strokeColor=#0F8B8D;fontColor=#143642;rounded=1;" vertex="1" parent="rhaK6J0jzwpchskZCCZA-24">
          <mxGeometry x="30" width="130" height="30" as="geometry">
            <mxRectangle width="130" height="30" as="alternateBounds" />
          </mxGeometry>
        </mxCell>
        <mxCell id="rhaK6J0jzwpchskZCCZA-30" style="edgeStyle=orthogonalEdgeStyle;rounded=1;orthogonalLoop=1;jettySize=auto;html=1;endArrow=ERmandOne;endFill=0;startArrow=ERmandOne;startFill=0;jumpStyle=line;labelBackgroundColor=none;strokeColor=#A8201A;fontColor=default;" edge="1" parent="1" source="rhaK6J0jzwpchskZCCZA-11" target="rhaK6J0jzwpchskZCCZA-15">
          <mxGeometry relative="1" as="geometry">
            <Array as="points">
              <mxPoint x="-910" y="310" />
              <mxPoint x="-910" y="400" />
            </Array>
          </mxGeometry>
        </mxCell>
        <mxCell id="rhaK6J0jzwpchskZCCZA-59" value="Orders" style="shape=table;startSize=30;container=1;collapsible=1;childLayout=tableLayout;fixedRows=1;rowLines=0;fontStyle=1;align=center;resizeLast=1;strokeColor=#0F8B8D;rounded=1;labelBackgroundColor=none;fillColor=#FAE5C7;fontColor=#143642;" vertex="1" parent="1">
          <mxGeometry x="-570" y="290" width="160" height="210" as="geometry" />
        </mxCell>
        <mxCell id="rhaK6J0jzwpchskZCCZA-60" value="" style="shape=partialRectangle;collapsible=0;dropTarget=0;pointerEvents=0;fillColor=none;points=[[0,0.5],[1,0.5]];portConstraint=eastwest;top=0;left=0;right=0;bottom=1;strokeColor=#0F8B8D;rounded=1;labelBackgroundColor=none;fontColor=#143642;" vertex="1" parent="rhaK6J0jzwpchskZCCZA-59">
          <mxGeometry y="30" width="160" height="30" as="geometry" />
        </mxCell>
        <mxCell id="rhaK6J0jzwpchskZCCZA-61" value="PK" style="shape=partialRectangle;overflow=hidden;connectable=0;fillColor=none;top=0;left=0;bottom=0;right=0;fontStyle=1;strokeColor=#0F8B8D;rounded=1;labelBackgroundColor=none;fontColor=#143642;" vertex="1" parent="rhaK6J0jzwpchskZCCZA-60">
          <mxGeometry width="30" height="30" as="geometry">
            <mxRectangle width="30" height="30" as="alternateBounds" />
          </mxGeometry>
        </mxCell>
        <mxCell id="rhaK6J0jzwpchskZCCZA-62" value="ID" style="shape=partialRectangle;overflow=hidden;connectable=0;fillColor=none;top=0;left=0;bottom=0;right=0;align=left;spacingLeft=6;fontStyle=5;strokeColor=#0F8B8D;rounded=1;labelBackgroundColor=none;fontColor=#143642;" vertex="1" parent="rhaK6J0jzwpchskZCCZA-60">
          <mxGeometry x="30" width="130" height="30" as="geometry">
            <mxRectangle width="130" height="30" as="alternateBounds" />
          </mxGeometry>
        </mxCell>
        <mxCell id="C-vyLk0tnHw3VtMMgP7b-6" value="" style="shape=partialRectangle;collapsible=0;dropTarget=0;pointerEvents=0;fillColor=none;points=[[0,0.5],[1,0.5]];portConstraint=eastwest;top=0;left=0;right=0;bottom=0;labelBackgroundColor=none;strokeColor=#0F8B8D;fontColor=#143642;rounded=1;" parent="rhaK6J0jzwpchskZCCZA-59" vertex="1">
          <mxGeometry y="60" width="160" height="30" as="geometry" />
        </mxCell>
        <mxCell id="C-vyLk0tnHw3VtMMgP7b-7" value="" style="shape=partialRectangle;overflow=hidden;connectable=0;fillColor=none;top=0;left=0;bottom=0;right=0;labelBackgroundColor=none;strokeColor=#0F8B8D;fontColor=#143642;rounded=1;" parent="C-vyLk0tnHw3VtMMgP7b-6" vertex="1">
          <mxGeometry width="30" height="30" as="geometry">
            <mxRectangle width="30" height="30" as="alternateBounds" />
          </mxGeometry>
        </mxCell>
        <mxCell id="C-vyLk0tnHw3VtMMgP7b-8" value="Customer_ID" style="shape=partialRectangle;overflow=hidden;connectable=0;fillColor=none;top=0;left=0;bottom=0;right=0;align=left;spacingLeft=6;labelBackgroundColor=none;strokeColor=#0F8B8D;fontColor=#143642;rounded=1;" parent="C-vyLk0tnHw3VtMMgP7b-6" vertex="1">
          <mxGeometry x="30" width="130" height="30" as="geometry">
            <mxRectangle width="130" height="30" as="alternateBounds" />
          </mxGeometry>
        </mxCell>
        <mxCell id="C-vyLk0tnHw3VtMMgP7b-9" value="" style="shape=partialRectangle;collapsible=0;dropTarget=0;pointerEvents=0;fillColor=none;points=[[0,0.5],[1,0.5]];portConstraint=eastwest;top=0;left=0;right=0;bottom=0;labelBackgroundColor=none;strokeColor=#0F8B8D;fontColor=#143642;rounded=1;" parent="rhaK6J0jzwpchskZCCZA-59" vertex="1">
          <mxGeometry y="90" width="160" height="30" as="geometry" />
        </mxCell>
        <mxCell id="C-vyLk0tnHw3VtMMgP7b-10" value="" style="shape=partialRectangle;overflow=hidden;connectable=0;fillColor=none;top=0;left=0;bottom=0;right=0;labelBackgroundColor=none;strokeColor=#0F8B8D;fontColor=#143642;rounded=1;" parent="C-vyLk0tnHw3VtMMgP7b-9" vertex="1">
          <mxGeometry width="30" height="30" as="geometry">
            <mxRectangle width="30" height="30" as="alternateBounds" />
          </mxGeometry>
        </mxCell>
        <mxCell id="C-vyLk0tnHw3VtMMgP7b-11" value="Virtual_machine_ID" style="shape=partialRectangle;overflow=hidden;connectable=0;fillColor=none;top=0;left=0;bottom=0;right=0;align=left;spacingLeft=6;labelBackgroundColor=none;strokeColor=#0F8B8D;fontColor=#143642;rounded=1;" parent="C-vyLk0tnHw3VtMMgP7b-9" vertex="1">
          <mxGeometry x="30" width="130" height="30" as="geometry">
            <mxRectangle width="130" height="30" as="alternateBounds" />
          </mxGeometry>
        </mxCell>
        <mxCell id="rhaK6J0jzwpchskZCCZA-150" value="" style="shape=tableRow;horizontal=0;startSize=0;swimlaneHead=0;swimlaneBody=0;fillColor=none;collapsible=0;dropTarget=0;points=[[0,0.5],[1,0.5]];portConstraint=eastwest;top=0;left=0;right=0;bottom=0;labelBackgroundColor=none;strokeColor=#0F8B8D;fontColor=#143642;rounded=1;" vertex="1" parent="rhaK6J0jzwpchskZCCZA-59">
          <mxGeometry y="120" width="160" height="30" as="geometry" />
        </mxCell>
        <mxCell id="rhaK6J0jzwpchskZCCZA-151" value="" style="shape=partialRectangle;connectable=0;fillColor=none;top=0;left=0;bottom=0;right=0;editable=1;overflow=hidden;labelBackgroundColor=none;strokeColor=#0F8B8D;fontColor=#143642;rounded=1;" vertex="1" parent="rhaK6J0jzwpchskZCCZA-150">
          <mxGeometry width="30" height="30" as="geometry">
            <mxRectangle width="30" height="30" as="alternateBounds" />
          </mxGeometry>
        </mxCell>
        <mxCell id="rhaK6J0jzwpchskZCCZA-152" value="Tariff_ID" style="shape=partialRectangle;connectable=0;fillColor=none;top=0;left=0;bottom=0;right=0;align=left;spacingLeft=6;overflow=hidden;labelBackgroundColor=none;strokeColor=#0F8B8D;fontColor=#143642;rounded=1;" vertex="1" parent="rhaK6J0jzwpchskZCCZA-150">
          <mxGeometry x="30" width="130" height="30" as="geometry">
            <mxRectangle width="130" height="30" as="alternateBounds" />
          </mxGeometry>
        </mxCell>
        <mxCell id="rhaK6J0jzwpchskZCCZA-66" value="" style="shape=partialRectangle;collapsible=0;dropTarget=0;pointerEvents=0;fillColor=none;points=[[0,0.5],[1,0.5]];portConstraint=eastwest;top=0;left=0;right=0;bottom=0;strokeColor=#0F8B8D;rounded=1;labelBackgroundColor=none;fontColor=#143642;" vertex="1" parent="rhaK6J0jzwpchskZCCZA-59">
          <mxGeometry y="150" width="160" height="30" as="geometry" />
        </mxCell>
        <mxCell id="rhaK6J0jzwpchskZCCZA-67" value="" style="shape=partialRectangle;overflow=hidden;connectable=0;fillColor=none;top=0;left=0;bottom=0;right=0;strokeColor=#0F8B8D;rounded=1;labelBackgroundColor=none;fontColor=#143642;" vertex="1" parent="rhaK6J0jzwpchskZCCZA-66">
          <mxGeometry width="30" height="30" as="geometry">
            <mxRectangle width="30" height="30" as="alternateBounds" />
          </mxGeometry>
        </mxCell>
        <mxCell id="rhaK6J0jzwpchskZCCZA-68" value="Order_Details_ID" style="shape=partialRectangle;overflow=hidden;connectable=0;fillColor=none;top=0;left=0;bottom=0;right=0;align=left;spacingLeft=6;strokeColor=#0F8B8D;rounded=1;labelBackgroundColor=none;fontColor=#143642;" vertex="1" parent="rhaK6J0jzwpchskZCCZA-66">
          <mxGeometry x="30" width="130" height="30" as="geometry">
            <mxRectangle width="130" height="30" as="alternateBounds" />
          </mxGeometry>
        </mxCell>
        <mxCell id="rhaK6J0jzwpchskZCCZA-154" value="" style="shape=tableRow;horizontal=0;startSize=0;swimlaneHead=0;swimlaneBody=0;fillColor=none;collapsible=0;dropTarget=0;points=[[0,0.5],[1,0.5]];portConstraint=eastwest;top=0;left=0;right=0;bottom=0;labelBackgroundColor=none;strokeColor=#0F8B8D;fontColor=#143642;rounded=1;" vertex="1" parent="rhaK6J0jzwpchskZCCZA-59">
          <mxGeometry y="180" width="160" height="30" as="geometry" />
        </mxCell>
        <mxCell id="rhaK6J0jzwpchskZCCZA-155" value="" style="shape=partialRectangle;connectable=0;fillColor=none;top=0;left=0;bottom=0;right=0;editable=1;overflow=hidden;labelBackgroundColor=none;strokeColor=#0F8B8D;fontColor=#143642;rounded=1;" vertex="1" parent="rhaK6J0jzwpchskZCCZA-154">
          <mxGeometry width="30" height="30" as="geometry">
            <mxRectangle width="30" height="30" as="alternateBounds" />
          </mxGeometry>
        </mxCell>
        <mxCell id="rhaK6J0jzwpchskZCCZA-156" value="Payment_ID" style="shape=partialRectangle;connectable=0;fillColor=none;top=0;left=0;bottom=0;right=0;align=left;spacingLeft=6;overflow=hidden;labelBackgroundColor=none;strokeColor=#0F8B8D;fontColor=#143642;rounded=1;" vertex="1" parent="rhaK6J0jzwpchskZCCZA-154">
          <mxGeometry x="30" width="130" height="30" as="geometry">
            <mxRectangle width="130" height="30" as="alternateBounds" />
          </mxGeometry>
        </mxCell>
        <mxCell id="rhaK6J0jzwpchskZCCZA-69" value="Order_Details" style="shape=table;startSize=30;container=1;collapsible=1;childLayout=tableLayout;fixedRows=1;rowLines=0;fontStyle=1;align=center;resizeLast=1;strokeColor=#0F8B8D;rounded=1;labelBackgroundColor=none;fillColor=#FAE5C7;fontColor=#143642;" vertex="1" parent="1">
          <mxGeometry x="-310" y="560" width="160" height="150" as="geometry" />
        </mxCell>
        <mxCell id="rhaK6J0jzwpchskZCCZA-70" value="" style="shape=partialRectangle;collapsible=0;dropTarget=0;pointerEvents=0;fillColor=none;points=[[0,0.5],[1,0.5]];portConstraint=eastwest;top=0;left=0;right=0;bottom=1;strokeColor=#0F8B8D;rounded=1;labelBackgroundColor=none;fontColor=#143642;" vertex="1" parent="rhaK6J0jzwpchskZCCZA-69">
          <mxGeometry y="30" width="160" height="30" as="geometry" />
        </mxCell>
        <mxCell id="rhaK6J0jzwpchskZCCZA-71" value="PK" style="shape=partialRectangle;overflow=hidden;connectable=0;fillColor=none;top=0;left=0;bottom=0;right=0;fontStyle=1;strokeColor=#0F8B8D;rounded=1;labelBackgroundColor=none;fontColor=#143642;" vertex="1" parent="rhaK6J0jzwpchskZCCZA-70">
          <mxGeometry width="30" height="30" as="geometry">
            <mxRectangle width="30" height="30" as="alternateBounds" />
          </mxGeometry>
        </mxCell>
        <mxCell id="rhaK6J0jzwpchskZCCZA-72" value="ID" style="shape=partialRectangle;overflow=hidden;connectable=0;fillColor=none;top=0;left=0;bottom=0;right=0;align=left;spacingLeft=6;fontStyle=5;strokeColor=#0F8B8D;rounded=1;labelBackgroundColor=none;fontColor=#143642;" vertex="1" parent="rhaK6J0jzwpchskZCCZA-70">
          <mxGeometry x="30" width="130" height="30" as="geometry">
            <mxRectangle width="130" height="30" as="alternateBounds" />
          </mxGeometry>
        </mxCell>
        <mxCell id="rhaK6J0jzwpchskZCCZA-73" value="" style="shape=partialRectangle;collapsible=0;dropTarget=0;pointerEvents=0;fillColor=none;points=[[0,0.5],[1,0.5]];portConstraint=eastwest;top=0;left=0;right=0;bottom=0;strokeColor=#0F8B8D;rounded=1;labelBackgroundColor=none;fontColor=#143642;" vertex="1" parent="rhaK6J0jzwpchskZCCZA-69">
          <mxGeometry y="60" width="160" height="30" as="geometry" />
        </mxCell>
        <mxCell id="rhaK6J0jzwpchskZCCZA-74" value="" style="shape=partialRectangle;overflow=hidden;connectable=0;fillColor=none;top=0;left=0;bottom=0;right=0;strokeColor=#0F8B8D;rounded=1;labelBackgroundColor=none;fontColor=#143642;" vertex="1" parent="rhaK6J0jzwpchskZCCZA-73">
          <mxGeometry width="30" height="30" as="geometry">
            <mxRectangle width="30" height="30" as="alternateBounds" />
          </mxGeometry>
        </mxCell>
        <mxCell id="rhaK6J0jzwpchskZCCZA-75" value="Total_Amount" style="shape=partialRectangle;overflow=hidden;connectable=0;fillColor=none;top=0;left=0;bottom=0;right=0;align=left;spacingLeft=6;strokeColor=#0F8B8D;rounded=1;labelBackgroundColor=none;fontColor=#143642;" vertex="1" parent="rhaK6J0jzwpchskZCCZA-73">
          <mxGeometry x="30" width="130" height="30" as="geometry">
            <mxRectangle width="130" height="30" as="alternateBounds" />
          </mxGeometry>
        </mxCell>
        <mxCell id="rhaK6J0jzwpchskZCCZA-76" value="" style="shape=partialRectangle;collapsible=0;dropTarget=0;pointerEvents=0;fillColor=none;points=[[0,0.5],[1,0.5]];portConstraint=eastwest;top=0;left=0;right=0;bottom=0;strokeColor=#0F8B8D;rounded=1;labelBackgroundColor=none;fontColor=#143642;" vertex="1" parent="rhaK6J0jzwpchskZCCZA-69">
          <mxGeometry y="90" width="160" height="30" as="geometry" />
        </mxCell>
        <mxCell id="rhaK6J0jzwpchskZCCZA-77" value="" style="shape=partialRectangle;overflow=hidden;connectable=0;fillColor=none;top=0;left=0;bottom=0;right=0;strokeColor=#0F8B8D;rounded=1;labelBackgroundColor=none;fontColor=#143642;" vertex="1" parent="rhaK6J0jzwpchskZCCZA-76">
          <mxGeometry width="30" height="30" as="geometry">
            <mxRectangle width="30" height="30" as="alternateBounds" />
          </mxGeometry>
        </mxCell>
        <mxCell id="rhaK6J0jzwpchskZCCZA-78" value="Amount" style="shape=partialRectangle;overflow=hidden;connectable=0;fillColor=none;top=0;left=0;bottom=0;right=0;align=left;spacingLeft=6;strokeColor=#0F8B8D;rounded=1;labelBackgroundColor=none;fontColor=#143642;" vertex="1" parent="rhaK6J0jzwpchskZCCZA-76">
          <mxGeometry x="30" width="130" height="30" as="geometry">
            <mxRectangle width="130" height="30" as="alternateBounds" />
          </mxGeometry>
        </mxCell>
        <mxCell id="rhaK6J0jzwpchskZCCZA-79" value="" style="shape=tableRow;horizontal=0;startSize=0;swimlaneHead=0;swimlaneBody=0;fillColor=none;collapsible=0;dropTarget=0;points=[[0,0.5],[1,0.5]];portConstraint=eastwest;top=0;left=0;right=0;bottom=0;rounded=1;labelBackgroundColor=none;strokeColor=#0F8B8D;fontColor=#143642;" vertex="1" parent="rhaK6J0jzwpchskZCCZA-69">
          <mxGeometry y="120" width="160" height="30" as="geometry" />
        </mxCell>
        <mxCell id="rhaK6J0jzwpchskZCCZA-80" value="" style="shape=partialRectangle;connectable=0;fillColor=none;top=0;left=0;bottom=0;right=0;editable=1;overflow=hidden;rounded=1;labelBackgroundColor=none;strokeColor=#0F8B8D;fontColor=#143642;" vertex="1" parent="rhaK6J0jzwpchskZCCZA-79">
          <mxGeometry width="30" height="30" as="geometry">
            <mxRectangle width="30" height="30" as="alternateBounds" />
          </mxGeometry>
        </mxCell>
        <mxCell id="rhaK6J0jzwpchskZCCZA-81" value="Notes" style="shape=partialRectangle;connectable=0;fillColor=none;top=0;left=0;bottom=0;right=0;align=left;spacingLeft=6;overflow=hidden;rounded=1;labelBackgroundColor=none;strokeColor=#0F8B8D;fontColor=#143642;" vertex="1" parent="rhaK6J0jzwpchskZCCZA-79">
          <mxGeometry x="30" width="130" height="30" as="geometry">
            <mxRectangle width="130" height="30" as="alternateBounds" />
          </mxGeometry>
        </mxCell>
        <mxCell id="rhaK6J0jzwpchskZCCZA-82" value="Order_Status" style="shape=table;startSize=30;container=1;collapsible=1;childLayout=tableLayout;fixedRows=1;rowLines=0;fontStyle=1;align=center;resizeLast=1;strokeColor=#0F8B8D;rounded=1;labelBackgroundColor=none;fillColor=#FAE5C7;fontColor=#143642;" vertex="1" parent="1">
          <mxGeometry x="-310" y="280" width="160" height="240" as="geometry" />
        </mxCell>
        <mxCell id="rhaK6J0jzwpchskZCCZA-83" value="" style="shape=partialRectangle;collapsible=0;dropTarget=0;pointerEvents=0;fillColor=none;points=[[0,0.5],[1,0.5]];portConstraint=eastwest;top=0;left=0;right=0;bottom=1;strokeColor=#0F8B8D;rounded=1;labelBackgroundColor=none;fontColor=#143642;" vertex="1" parent="rhaK6J0jzwpchskZCCZA-82">
          <mxGeometry y="30" width="160" height="30" as="geometry" />
        </mxCell>
        <mxCell id="rhaK6J0jzwpchskZCCZA-84" value="PK" style="shape=partialRectangle;overflow=hidden;connectable=0;fillColor=none;top=0;left=0;bottom=0;right=0;fontStyle=1;strokeColor=#0F8B8D;rounded=1;labelBackgroundColor=none;fontColor=#143642;" vertex="1" parent="rhaK6J0jzwpchskZCCZA-83">
          <mxGeometry width="30" height="30" as="geometry">
            <mxRectangle width="30" height="30" as="alternateBounds" />
          </mxGeometry>
        </mxCell>
        <mxCell id="rhaK6J0jzwpchskZCCZA-85" value="ID" style="shape=partialRectangle;overflow=hidden;connectable=0;fillColor=none;top=0;left=0;bottom=0;right=0;align=left;spacingLeft=6;fontStyle=5;strokeColor=#0F8B8D;rounded=1;labelBackgroundColor=none;fontColor=#143642;" vertex="1" parent="rhaK6J0jzwpchskZCCZA-83">
          <mxGeometry x="30" width="130" height="30" as="geometry">
            <mxRectangle width="130" height="30" as="alternateBounds" />
          </mxGeometry>
        </mxCell>
        <mxCell id="rhaK6J0jzwpchskZCCZA-86" value="" style="shape=partialRectangle;collapsible=0;dropTarget=0;pointerEvents=0;fillColor=none;points=[[0,0.5],[1,0.5]];portConstraint=eastwest;top=0;left=0;right=0;bottom=0;strokeColor=#0F8B8D;rounded=1;labelBackgroundColor=none;fontColor=#143642;" vertex="1" parent="rhaK6J0jzwpchskZCCZA-82">
          <mxGeometry y="60" width="160" height="30" as="geometry" />
        </mxCell>
        <mxCell id="rhaK6J0jzwpchskZCCZA-87" value="" style="shape=partialRectangle;overflow=hidden;connectable=0;fillColor=none;top=0;left=0;bottom=0;right=0;strokeColor=#0F8B8D;rounded=1;labelBackgroundColor=none;fontColor=#143642;" vertex="1" parent="rhaK6J0jzwpchskZCCZA-86">
          <mxGeometry width="30" height="30" as="geometry">
            <mxRectangle width="30" height="30" as="alternateBounds" />
          </mxGeometry>
        </mxCell>
        <mxCell id="rhaK6J0jzwpchskZCCZA-88" value="Order_ID" style="shape=partialRectangle;overflow=hidden;connectable=0;fillColor=none;top=0;left=0;bottom=0;right=0;align=left;spacingLeft=6;strokeColor=#0F8B8D;rounded=1;labelBackgroundColor=none;fontColor=#143642;" vertex="1" parent="rhaK6J0jzwpchskZCCZA-86">
          <mxGeometry x="30" width="130" height="30" as="geometry">
            <mxRectangle width="130" height="30" as="alternateBounds" />
          </mxGeometry>
        </mxCell>
        <mxCell id="rhaK6J0jzwpchskZCCZA-89" value="" style="shape=partialRectangle;collapsible=0;dropTarget=0;pointerEvents=0;fillColor=none;points=[[0,0.5],[1,0.5]];portConstraint=eastwest;top=0;left=0;right=0;bottom=0;strokeColor=#0F8B8D;rounded=1;labelBackgroundColor=none;fontColor=#143642;" vertex="1" parent="rhaK6J0jzwpchskZCCZA-82">
          <mxGeometry y="90" width="160" height="30" as="geometry" />
        </mxCell>
        <mxCell id="rhaK6J0jzwpchskZCCZA-90" value="" style="shape=partialRectangle;overflow=hidden;connectable=0;fillColor=none;top=0;left=0;bottom=0;right=0;strokeColor=#0F8B8D;rounded=1;labelBackgroundColor=none;fontColor=#143642;" vertex="1" parent="rhaK6J0jzwpchskZCCZA-89">
          <mxGeometry width="30" height="30" as="geometry">
            <mxRectangle width="30" height="30" as="alternateBounds" />
          </mxGeometry>
        </mxCell>
        <mxCell id="rhaK6J0jzwpchskZCCZA-91" value="Status_Name" style="shape=partialRectangle;overflow=hidden;connectable=0;fillColor=none;top=0;left=0;bottom=0;right=0;align=left;spacingLeft=6;strokeColor=#0F8B8D;rounded=1;labelBackgroundColor=none;fontColor=#143642;" vertex="1" parent="rhaK6J0jzwpchskZCCZA-89">
          <mxGeometry x="30" width="130" height="30" as="geometry">
            <mxRectangle width="130" height="30" as="alternateBounds" />
          </mxGeometry>
        </mxCell>
        <mxCell id="rhaK6J0jzwpchskZCCZA-92" value="" style="shape=tableRow;horizontal=0;startSize=0;swimlaneHead=0;swimlaneBody=0;fillColor=none;collapsible=0;dropTarget=0;points=[[0,0.5],[1,0.5]];portConstraint=eastwest;top=0;left=0;right=0;bottom=0;rounded=1;labelBackgroundColor=none;strokeColor=#0F8B8D;fontColor=#143642;" vertex="1" parent="rhaK6J0jzwpchskZCCZA-82">
          <mxGeometry y="120" width="160" height="30" as="geometry" />
        </mxCell>
        <mxCell id="rhaK6J0jzwpchskZCCZA-93" value="" style="shape=partialRectangle;connectable=0;fillColor=none;top=0;left=0;bottom=0;right=0;editable=1;overflow=hidden;rounded=1;labelBackgroundColor=none;strokeColor=#0F8B8D;fontColor=#143642;" vertex="1" parent="rhaK6J0jzwpchskZCCZA-92">
          <mxGeometry width="30" height="30" as="geometry">
            <mxRectangle width="30" height="30" as="alternateBounds" />
          </mxGeometry>
        </mxCell>
        <mxCell id="rhaK6J0jzwpchskZCCZA-94" value="Status_Description" style="shape=partialRectangle;connectable=0;fillColor=none;top=0;left=0;bottom=0;right=0;align=left;spacingLeft=6;overflow=hidden;rounded=1;labelBackgroundColor=none;strokeColor=#0F8B8D;fontColor=#143642;" vertex="1" parent="rhaK6J0jzwpchskZCCZA-92">
          <mxGeometry x="30" width="130" height="30" as="geometry">
            <mxRectangle width="130" height="30" as="alternateBounds" />
          </mxGeometry>
        </mxCell>
        <mxCell id="rhaK6J0jzwpchskZCCZA-95" value="" style="shape=tableRow;horizontal=0;startSize=0;swimlaneHead=0;swimlaneBody=0;fillColor=none;collapsible=0;dropTarget=0;points=[[0,0.5],[1,0.5]];portConstraint=eastwest;top=0;left=0;right=0;bottom=0;rounded=1;labelBackgroundColor=none;strokeColor=#0F8B8D;fontColor=#143642;" vertex="1" parent="rhaK6J0jzwpchskZCCZA-82">
          <mxGeometry y="150" width="160" height="30" as="geometry" />
        </mxCell>
        <mxCell id="rhaK6J0jzwpchskZCCZA-96" value="" style="shape=partialRectangle;connectable=0;fillColor=none;top=0;left=0;bottom=0;right=0;editable=1;overflow=hidden;rounded=1;labelBackgroundColor=none;strokeColor=#0F8B8D;fontColor=#143642;" vertex="1" parent="rhaK6J0jzwpchskZCCZA-95">
          <mxGeometry width="30" height="30" as="geometry">
            <mxRectangle width="30" height="30" as="alternateBounds" />
          </mxGeometry>
        </mxCell>
        <mxCell id="rhaK6J0jzwpchskZCCZA-97" value="Is_Default_Status" style="shape=partialRectangle;connectable=0;fillColor=none;top=0;left=0;bottom=0;right=0;align=left;spacingLeft=6;overflow=hidden;rounded=1;labelBackgroundColor=none;strokeColor=#0F8B8D;fontColor=#143642;" vertex="1" parent="rhaK6J0jzwpchskZCCZA-95">
          <mxGeometry x="30" width="130" height="30" as="geometry">
            <mxRectangle width="130" height="30" as="alternateBounds" />
          </mxGeometry>
        </mxCell>
        <mxCell id="rhaK6J0jzwpchskZCCZA-98" value="" style="shape=tableRow;horizontal=0;startSize=0;swimlaneHead=0;swimlaneBody=0;fillColor=none;collapsible=0;dropTarget=0;points=[[0,0.5],[1,0.5]];portConstraint=eastwest;top=0;left=0;right=0;bottom=0;rounded=1;labelBackgroundColor=none;strokeColor=#0F8B8D;fontColor=#143642;" vertex="1" parent="rhaK6J0jzwpchskZCCZA-82">
          <mxGeometry y="180" width="160" height="30" as="geometry" />
        </mxCell>
        <mxCell id="rhaK6J0jzwpchskZCCZA-99" value="" style="shape=partialRectangle;connectable=0;fillColor=none;top=0;left=0;bottom=0;right=0;editable=1;overflow=hidden;rounded=1;labelBackgroundColor=none;strokeColor=#0F8B8D;fontColor=#143642;" vertex="1" parent="rhaK6J0jzwpchskZCCZA-98">
          <mxGeometry width="30" height="30" as="geometry">
            <mxRectangle width="30" height="30" as="alternateBounds" />
          </mxGeometry>
        </mxCell>
        <mxCell id="rhaK6J0jzwpchskZCCZA-100" value="Date_Created" style="shape=partialRectangle;connectable=0;fillColor=none;top=0;left=0;bottom=0;right=0;align=left;spacingLeft=6;overflow=hidden;rounded=1;labelBackgroundColor=none;strokeColor=#0F8B8D;fontColor=#143642;" vertex="1" parent="rhaK6J0jzwpchskZCCZA-98">
          <mxGeometry x="30" width="130" height="30" as="geometry">
            <mxRectangle width="130" height="30" as="alternateBounds" />
          </mxGeometry>
        </mxCell>
        <mxCell id="rhaK6J0jzwpchskZCCZA-101" value="" style="shape=tableRow;horizontal=0;startSize=0;swimlaneHead=0;swimlaneBody=0;fillColor=none;collapsible=0;dropTarget=0;points=[[0,0.5],[1,0.5]];portConstraint=eastwest;top=0;left=0;right=0;bottom=0;rounded=1;labelBackgroundColor=none;strokeColor=#0F8B8D;fontColor=#143642;" vertex="1" parent="rhaK6J0jzwpchskZCCZA-82">
          <mxGeometry y="210" width="160" height="30" as="geometry" />
        </mxCell>
        <mxCell id="rhaK6J0jzwpchskZCCZA-102" value="" style="shape=partialRectangle;connectable=0;fillColor=none;top=0;left=0;bottom=0;right=0;editable=1;overflow=hidden;rounded=1;labelBackgroundColor=none;strokeColor=#0F8B8D;fontColor=#143642;" vertex="1" parent="rhaK6J0jzwpchskZCCZA-101">
          <mxGeometry width="30" height="30" as="geometry">
            <mxRectangle width="30" height="30" as="alternateBounds" />
          </mxGeometry>
        </mxCell>
        <mxCell id="rhaK6J0jzwpchskZCCZA-103" value="Last_Updated" style="shape=partialRectangle;connectable=0;fillColor=none;top=0;left=0;bottom=0;right=0;align=left;spacingLeft=6;overflow=hidden;rounded=1;labelBackgroundColor=none;strokeColor=#0F8B8D;fontColor=#143642;" vertex="1" parent="rhaK6J0jzwpchskZCCZA-101">
          <mxGeometry x="30" width="130" height="30" as="geometry">
            <mxRectangle width="130" height="30" as="alternateBounds" />
          </mxGeometry>
        </mxCell>
        <mxCell id="rhaK6J0jzwpchskZCCZA-104" value="Payment" style="shape=table;startSize=30;container=1;collapsible=1;childLayout=tableLayout;fixedRows=1;rowLines=0;fontStyle=1;align=center;resizeLast=1;strokeColor=#0F8B8D;rounded=1;labelBackgroundColor=none;fillColor=#FAE5C7;fontColor=#143642;" vertex="1" parent="1">
          <mxGeometry x="-570" y="530" width="160" height="240" as="geometry" />
        </mxCell>
        <mxCell id="rhaK6J0jzwpchskZCCZA-105" value="" style="shape=partialRectangle;collapsible=0;dropTarget=0;pointerEvents=0;fillColor=none;points=[[0,0.5],[1,0.5]];portConstraint=eastwest;top=0;left=0;right=0;bottom=1;strokeColor=#0F8B8D;rounded=1;labelBackgroundColor=none;fontColor=#143642;" vertex="1" parent="rhaK6J0jzwpchskZCCZA-104">
          <mxGeometry y="30" width="160" height="30" as="geometry" />
        </mxCell>
        <mxCell id="rhaK6J0jzwpchskZCCZA-106" value="PK" style="shape=partialRectangle;overflow=hidden;connectable=0;fillColor=none;top=0;left=0;bottom=0;right=0;fontStyle=1;strokeColor=#0F8B8D;rounded=1;labelBackgroundColor=none;fontColor=#143642;" vertex="1" parent="rhaK6J0jzwpchskZCCZA-105">
          <mxGeometry width="30" height="30" as="geometry">
            <mxRectangle width="30" height="30" as="alternateBounds" />
          </mxGeometry>
        </mxCell>
        <mxCell id="rhaK6J0jzwpchskZCCZA-107" value="ID" style="shape=partialRectangle;overflow=hidden;connectable=0;fillColor=none;top=0;left=0;bottom=0;right=0;align=left;spacingLeft=6;fontStyle=5;strokeColor=#0F8B8D;rounded=1;labelBackgroundColor=none;fontColor=#143642;" vertex="1" parent="rhaK6J0jzwpchskZCCZA-105">
          <mxGeometry x="30" width="130" height="30" as="geometry">
            <mxRectangle width="130" height="30" as="alternateBounds" />
          </mxGeometry>
        </mxCell>
        <mxCell id="rhaK6J0jzwpchskZCCZA-108" value="" style="shape=partialRectangle;collapsible=0;dropTarget=0;pointerEvents=0;fillColor=none;points=[[0,0.5],[1,0.5]];portConstraint=eastwest;top=0;left=0;right=0;bottom=0;strokeColor=#0F8B8D;rounded=1;labelBackgroundColor=none;fontColor=#143642;" vertex="1" parent="rhaK6J0jzwpchskZCCZA-104">
          <mxGeometry y="60" width="160" height="30" as="geometry" />
        </mxCell>
        <mxCell id="rhaK6J0jzwpchskZCCZA-109" value="" style="shape=partialRectangle;overflow=hidden;connectable=0;fillColor=none;top=0;left=0;bottom=0;right=0;strokeColor=#0F8B8D;rounded=1;labelBackgroundColor=none;fontColor=#143642;" vertex="1" parent="rhaK6J0jzwpchskZCCZA-108">
          <mxGeometry width="30" height="30" as="geometry">
            <mxRectangle width="30" height="30" as="alternateBounds" />
          </mxGeometry>
        </mxCell>
        <mxCell id="rhaK6J0jzwpchskZCCZA-110" value="Order_ID " style="shape=partialRectangle;overflow=hidden;connectable=0;fillColor=none;top=0;left=0;bottom=0;right=0;align=left;spacingLeft=6;strokeColor=#0F8B8D;rounded=1;labelBackgroundColor=none;fontColor=#143642;" vertex="1" parent="rhaK6J0jzwpchskZCCZA-108">
          <mxGeometry x="30" width="130" height="30" as="geometry">
            <mxRectangle width="130" height="30" as="alternateBounds" />
          </mxGeometry>
        </mxCell>
        <mxCell id="rhaK6J0jzwpchskZCCZA-111" value="" style="shape=partialRectangle;collapsible=0;dropTarget=0;pointerEvents=0;fillColor=none;points=[[0,0.5],[1,0.5]];portConstraint=eastwest;top=0;left=0;right=0;bottom=0;strokeColor=#0F8B8D;rounded=1;labelBackgroundColor=none;fontColor=#143642;" vertex="1" parent="rhaK6J0jzwpchskZCCZA-104">
          <mxGeometry y="90" width="160" height="30" as="geometry" />
        </mxCell>
        <mxCell id="rhaK6J0jzwpchskZCCZA-112" value="" style="shape=partialRectangle;overflow=hidden;connectable=0;fillColor=none;top=0;left=0;bottom=0;right=0;strokeColor=#0F8B8D;rounded=1;labelBackgroundColor=none;fontColor=#143642;" vertex="1" parent="rhaK6J0jzwpchskZCCZA-111">
          <mxGeometry width="30" height="30" as="geometry">
            <mxRectangle width="30" height="30" as="alternateBounds" />
          </mxGeometry>
        </mxCell>
        <mxCell id="rhaK6J0jzwpchskZCCZA-113" value="Amount" style="shape=partialRectangle;overflow=hidden;connectable=0;fillColor=none;top=0;left=0;bottom=0;right=0;align=left;spacingLeft=6;strokeColor=#0F8B8D;rounded=1;labelBackgroundColor=none;fontColor=#143642;" vertex="1" parent="rhaK6J0jzwpchskZCCZA-111">
          <mxGeometry x="30" width="130" height="30" as="geometry">
            <mxRectangle width="130" height="30" as="alternateBounds" />
          </mxGeometry>
        </mxCell>
        <mxCell id="rhaK6J0jzwpchskZCCZA-114" value="" style="shape=tableRow;horizontal=0;startSize=0;swimlaneHead=0;swimlaneBody=0;fillColor=none;collapsible=0;dropTarget=0;points=[[0,0.5],[1,0.5]];portConstraint=eastwest;top=0;left=0;right=0;bottom=0;strokeColor=#0F8B8D;fontColor=#143642;rounded=1;labelBackgroundColor=none;" vertex="1" parent="rhaK6J0jzwpchskZCCZA-104">
          <mxGeometry y="120" width="160" height="30" as="geometry" />
        </mxCell>
        <mxCell id="rhaK6J0jzwpchskZCCZA-115" value="" style="shape=partialRectangle;connectable=0;fillColor=none;top=0;left=0;bottom=0;right=0;editable=1;overflow=hidden;strokeColor=#0F8B8D;fontColor=#143642;rounded=1;labelBackgroundColor=none;" vertex="1" parent="rhaK6J0jzwpchskZCCZA-114">
          <mxGeometry width="30" height="30" as="geometry">
            <mxRectangle width="30" height="30" as="alternateBounds" />
          </mxGeometry>
        </mxCell>
        <mxCell id="rhaK6J0jzwpchskZCCZA-116" value="Payment_Date" style="shape=partialRectangle;connectable=0;fillColor=none;top=0;left=0;bottom=0;right=0;align=left;spacingLeft=6;overflow=hidden;strokeColor=#0F8B8D;fontColor=#143642;rounded=1;labelBackgroundColor=none;" vertex="1" parent="rhaK6J0jzwpchskZCCZA-114">
          <mxGeometry x="30" width="130" height="30" as="geometry">
            <mxRectangle width="130" height="30" as="alternateBounds" />
          </mxGeometry>
        </mxCell>
        <mxCell id="rhaK6J0jzwpchskZCCZA-117" value="" style="shape=tableRow;horizontal=0;startSize=0;swimlaneHead=0;swimlaneBody=0;fillColor=none;collapsible=0;dropTarget=0;points=[[0,0.5],[1,0.5]];portConstraint=eastwest;top=0;left=0;right=0;bottom=0;strokeColor=#0F8B8D;fontColor=#143642;rounded=1;labelBackgroundColor=none;" vertex="1" parent="rhaK6J0jzwpchskZCCZA-104">
          <mxGeometry y="150" width="160" height="30" as="geometry" />
        </mxCell>
        <mxCell id="rhaK6J0jzwpchskZCCZA-118" value="" style="shape=partialRectangle;connectable=0;fillColor=none;top=0;left=0;bottom=0;right=0;editable=1;overflow=hidden;strokeColor=#0F8B8D;fontColor=#143642;rounded=1;labelBackgroundColor=none;" vertex="1" parent="rhaK6J0jzwpchskZCCZA-117">
          <mxGeometry width="30" height="30" as="geometry">
            <mxRectangle width="30" height="30" as="alternateBounds" />
          </mxGeometry>
        </mxCell>
        <mxCell id="rhaK6J0jzwpchskZCCZA-119" value="Payment_Method" style="shape=partialRectangle;connectable=0;fillColor=none;top=0;left=0;bottom=0;right=0;align=left;spacingLeft=6;overflow=hidden;strokeColor=#0F8B8D;fontColor=#143642;rounded=1;labelBackgroundColor=none;" vertex="1" parent="rhaK6J0jzwpchskZCCZA-117">
          <mxGeometry x="30" width="130" height="30" as="geometry">
            <mxRectangle width="130" height="30" as="alternateBounds" />
          </mxGeometry>
        </mxCell>
        <mxCell id="rhaK6J0jzwpchskZCCZA-120" value="" style="shape=tableRow;horizontal=0;startSize=0;swimlaneHead=0;swimlaneBody=0;fillColor=none;collapsible=0;dropTarget=0;points=[[0,0.5],[1,0.5]];portConstraint=eastwest;top=0;left=0;right=0;bottom=0;rounded=1;labelBackgroundColor=none;strokeColor=#0F8B8D;fontColor=#143642;" vertex="1" parent="rhaK6J0jzwpchskZCCZA-104">
          <mxGeometry y="180" width="160" height="30" as="geometry" />
        </mxCell>
        <mxCell id="rhaK6J0jzwpchskZCCZA-121" value="" style="shape=partialRectangle;connectable=0;fillColor=none;top=0;left=0;bottom=0;right=0;editable=1;overflow=hidden;rounded=1;labelBackgroundColor=none;strokeColor=#0F8B8D;fontColor=#143642;" vertex="1" parent="rhaK6J0jzwpchskZCCZA-120">
          <mxGeometry width="30" height="30" as="geometry">
            <mxRectangle width="30" height="30" as="alternateBounds" />
          </mxGeometry>
        </mxCell>
        <mxCell id="rhaK6J0jzwpchskZCCZA-122" value="Payment_Status" style="shape=partialRectangle;connectable=0;fillColor=none;top=0;left=0;bottom=0;right=0;align=left;spacingLeft=6;overflow=hidden;rounded=1;labelBackgroundColor=none;strokeColor=#0F8B8D;fontColor=#143642;" vertex="1" parent="rhaK6J0jzwpchskZCCZA-120">
          <mxGeometry x="30" width="130" height="30" as="geometry">
            <mxRectangle width="130" height="30" as="alternateBounds" />
          </mxGeometry>
        </mxCell>
        <mxCell id="rhaK6J0jzwpchskZCCZA-123" value="" style="shape=tableRow;horizontal=0;startSize=0;swimlaneHead=0;swimlaneBody=0;fillColor=none;collapsible=0;dropTarget=0;points=[[0,0.5],[1,0.5]];portConstraint=eastwest;top=0;left=0;right=0;bottom=0;rounded=1;labelBackgroundColor=none;strokeColor=#0F8B8D;fontColor=#143642;" vertex="1" parent="rhaK6J0jzwpchskZCCZA-104">
          <mxGeometry y="210" width="160" height="30" as="geometry" />
        </mxCell>
        <mxCell id="rhaK6J0jzwpchskZCCZA-124" value="" style="shape=partialRectangle;connectable=0;fillColor=none;top=0;left=0;bottom=0;right=0;editable=1;overflow=hidden;rounded=1;labelBackgroundColor=none;strokeColor=#0F8B8D;fontColor=#143642;" vertex="1" parent="rhaK6J0jzwpchskZCCZA-123">
          <mxGeometry width="30" height="30" as="geometry">
            <mxRectangle width="30" height="30" as="alternateBounds" />
          </mxGeometry>
        </mxCell>
        <mxCell id="rhaK6J0jzwpchskZCCZA-125" value="Refund_Status" style="shape=partialRectangle;connectable=0;fillColor=none;top=0;left=0;bottom=0;right=0;align=left;spacingLeft=6;overflow=hidden;rounded=1;labelBackgroundColor=none;strokeColor=#0F8B8D;fontColor=#143642;" vertex="1" parent="rhaK6J0jzwpchskZCCZA-123">
          <mxGeometry x="30" width="130" height="30" as="geometry">
            <mxRectangle width="130" height="30" as="alternateBounds" />
          </mxGeometry>
        </mxCell>
        <mxCell id="rhaK6J0jzwpchskZCCZA-126" value="" style="edgeStyle=elbowEdgeStyle;fontSize=12;html=1;endArrow=ERmandOne;startArrow=ERmandOne;rounded=1;labelBackgroundColor=none;strokeColor=#A8201A;fontColor=default;jumpStyle=line;exitX=0;exitY=0.5;exitDx=0;exitDy=0;entryX=1;entryY=0.5;entryDx=0;entryDy=0;" edge="1" parent="1" source="rhaK6J0jzwpchskZCCZA-70" target="rhaK6J0jzwpchskZCCZA-66">
          <mxGeometry width="100" height="100" relative="1" as="geometry">
            <mxPoint x="-360" y="490" as="sourcePoint" />
            <mxPoint x="-380" y="460" as="targetPoint" />
            <Array as="points">
              <mxPoint x="-340" y="530" />
            </Array>
          </mxGeometry>
        </mxCell>
        <mxCell id="rhaK6J0jzwpchskZCCZA-127" value="" style="edgeStyle=elbowEdgeStyle;fontSize=12;html=1;endArrow=ERmandOne;startArrow=ERmandOne;rounded=1;labelBackgroundColor=none;strokeColor=#A8201A;fontColor=default;jumpStyle=line;" edge="1" parent="1" source="rhaK6J0jzwpchskZCCZA-60" target="rhaK6J0jzwpchskZCCZA-108">
          <mxGeometry width="100" height="100" relative="1" as="geometry">
            <mxPoint x="-260" y="1420" as="sourcePoint" />
            <mxPoint x="-260" y="1310" as="targetPoint" />
            <Array as="points">
              <mxPoint x="-370" y="470" />
            </Array>
          </mxGeometry>
        </mxCell>
        <mxCell id="rhaK6J0jzwpchskZCCZA-128" value="" style="fontSize=12;html=1;endArrow=ERoneToMany;rounded=1;exitX=0;exitY=0.5;exitDx=0;exitDy=0;labelBackgroundColor=none;strokeColor=#A8201A;fontColor=default;edgeStyle=orthogonalEdgeStyle;jumpStyle=line;startArrow=ERmandOne;startFill=0;endFill=0;" edge="1" parent="1" source="rhaK6J0jzwpchskZCCZA-60" target="rhaK6J0jzwpchskZCCZA-86">
          <mxGeometry width="100" height="100" relative="1" as="geometry">
            <mxPoint x="-270" y="900" as="sourcePoint" />
            <mxPoint x="-170" y="800" as="targetPoint" />
            <Array as="points">
              <mxPoint x="-600" y="335" />
              <mxPoint x="-600" y="270" />
              <mxPoint x="-340" y="270" />
              <mxPoint x="-340" y="365" />
            </Array>
          </mxGeometry>
        </mxCell>
        <mxCell id="rhaK6J0jzwpchskZCCZA-133" value="Tariff" style="shape=table;startSize=30;container=1;collapsible=1;childLayout=tableLayout;fixedRows=1;rowLines=0;fontStyle=1;align=center;resizeLast=1;labelBackgroundColor=none;fillColor=#FAE5C7;strokeColor=#0F8B8D;fontColor=#143642;rounded=1;" vertex="1" parent="1">
          <mxGeometry x="-870" y="555" width="160" height="180" as="geometry" />
        </mxCell>
        <mxCell id="rhaK6J0jzwpchskZCCZA-134" value="" style="shape=partialRectangle;collapsible=0;dropTarget=0;pointerEvents=0;fillColor=none;points=[[0,0.5],[1,0.5]];portConstraint=eastwest;top=0;left=0;right=0;bottom=1;labelBackgroundColor=none;strokeColor=#0F8B8D;fontColor=#143642;rounded=1;" vertex="1" parent="rhaK6J0jzwpchskZCCZA-133">
          <mxGeometry y="30" width="160" height="30" as="geometry" />
        </mxCell>
        <mxCell id="rhaK6J0jzwpchskZCCZA-135" value="PK" style="shape=partialRectangle;overflow=hidden;connectable=0;fillColor=none;top=0;left=0;bottom=0;right=0;fontStyle=1;labelBackgroundColor=none;strokeColor=#0F8B8D;fontColor=#143642;rounded=1;" vertex="1" parent="rhaK6J0jzwpchskZCCZA-134">
          <mxGeometry width="30" height="30" as="geometry">
            <mxRectangle width="30" height="30" as="alternateBounds" />
          </mxGeometry>
        </mxCell>
        <mxCell id="rhaK6J0jzwpchskZCCZA-136" value="ID" style="shape=partialRectangle;overflow=hidden;connectable=0;fillColor=none;top=0;left=0;bottom=0;right=0;align=left;spacingLeft=6;fontStyle=5;labelBackgroundColor=none;strokeColor=#0F8B8D;fontColor=#143642;rounded=1;" vertex="1" parent="rhaK6J0jzwpchskZCCZA-134">
          <mxGeometry x="30" width="130" height="30" as="geometry">
            <mxRectangle width="130" height="30" as="alternateBounds" />
          </mxGeometry>
        </mxCell>
        <mxCell id="rhaK6J0jzwpchskZCCZA-137" value="" style="shape=partialRectangle;collapsible=0;dropTarget=0;pointerEvents=0;fillColor=none;points=[[0,0.5],[1,0.5]];portConstraint=eastwest;top=0;left=0;right=0;bottom=0;labelBackgroundColor=none;strokeColor=#0F8B8D;fontColor=#143642;rounded=1;" vertex="1" parent="rhaK6J0jzwpchskZCCZA-133">
          <mxGeometry y="60" width="160" height="30" as="geometry" />
        </mxCell>
        <mxCell id="rhaK6J0jzwpchskZCCZA-138" value="" style="shape=partialRectangle;overflow=hidden;connectable=0;fillColor=none;top=0;left=0;bottom=0;right=0;labelBackgroundColor=none;strokeColor=#0F8B8D;fontColor=#143642;rounded=1;" vertex="1" parent="rhaK6J0jzwpchskZCCZA-137">
          <mxGeometry width="30" height="30" as="geometry">
            <mxRectangle width="30" height="30" as="alternateBounds" />
          </mxGeometry>
        </mxCell>
        <mxCell id="rhaK6J0jzwpchskZCCZA-139" value="Name" style="shape=partialRectangle;overflow=hidden;connectable=0;fillColor=none;top=0;left=0;bottom=0;right=0;align=left;spacingLeft=6;labelBackgroundColor=none;strokeColor=#0F8B8D;fontColor=#143642;rounded=1;" vertex="1" parent="rhaK6J0jzwpchskZCCZA-137">
          <mxGeometry x="30" width="130" height="30" as="geometry">
            <mxRectangle width="130" height="30" as="alternateBounds" />
          </mxGeometry>
        </mxCell>
        <mxCell id="rhaK6J0jzwpchskZCCZA-140" value="" style="shape=partialRectangle;collapsible=0;dropTarget=0;pointerEvents=0;fillColor=none;points=[[0,0.5],[1,0.5]];portConstraint=eastwest;top=0;left=0;right=0;bottom=0;labelBackgroundColor=none;strokeColor=#0F8B8D;fontColor=#143642;rounded=1;" vertex="1" parent="rhaK6J0jzwpchskZCCZA-133">
          <mxGeometry y="90" width="160" height="30" as="geometry" />
        </mxCell>
        <mxCell id="rhaK6J0jzwpchskZCCZA-141" value="" style="shape=partialRectangle;overflow=hidden;connectable=0;fillColor=none;top=0;left=0;bottom=0;right=0;labelBackgroundColor=none;strokeColor=#0F8B8D;fontColor=#143642;rounded=1;" vertex="1" parent="rhaK6J0jzwpchskZCCZA-140">
          <mxGeometry width="30" height="30" as="geometry">
            <mxRectangle width="30" height="30" as="alternateBounds" />
          </mxGeometry>
        </mxCell>
        <mxCell id="rhaK6J0jzwpchskZCCZA-142" value="Description" style="shape=partialRectangle;overflow=hidden;connectable=0;fillColor=none;top=0;left=0;bottom=0;right=0;align=left;spacingLeft=6;labelBackgroundColor=none;strokeColor=#0F8B8D;fontColor=#143642;rounded=1;" vertex="1" parent="rhaK6J0jzwpchskZCCZA-140">
          <mxGeometry x="30" width="130" height="30" as="geometry">
            <mxRectangle width="130" height="30" as="alternateBounds" />
          </mxGeometry>
        </mxCell>
        <mxCell id="rhaK6J0jzwpchskZCCZA-143" value="" style="shape=tableRow;horizontal=0;startSize=0;swimlaneHead=0;swimlaneBody=0;fillColor=none;collapsible=0;dropTarget=0;points=[[0,0.5],[1,0.5]];portConstraint=eastwest;top=0;left=0;right=0;bottom=0;labelBackgroundColor=none;strokeColor=#0F8B8D;fontColor=#143642;rounded=1;" vertex="1" parent="rhaK6J0jzwpchskZCCZA-133">
          <mxGeometry y="120" width="160" height="30" as="geometry" />
        </mxCell>
        <mxCell id="rhaK6J0jzwpchskZCCZA-144" value="" style="shape=partialRectangle;connectable=0;fillColor=none;top=0;left=0;bottom=0;right=0;editable=1;overflow=hidden;labelBackgroundColor=none;strokeColor=#0F8B8D;fontColor=#143642;rounded=1;" vertex="1" parent="rhaK6J0jzwpchskZCCZA-143">
          <mxGeometry width="30" height="30" as="geometry">
            <mxRectangle width="30" height="30" as="alternateBounds" />
          </mxGeometry>
        </mxCell>
        <mxCell id="rhaK6J0jzwpchskZCCZA-145" value="Price" style="shape=partialRectangle;connectable=0;fillColor=none;top=0;left=0;bottom=0;right=0;align=left;spacingLeft=6;overflow=hidden;labelBackgroundColor=none;strokeColor=#0F8B8D;fontColor=#143642;rounded=1;" vertex="1" parent="rhaK6J0jzwpchskZCCZA-143">
          <mxGeometry x="30" width="130" height="30" as="geometry">
            <mxRectangle width="130" height="30" as="alternateBounds" />
          </mxGeometry>
        </mxCell>
        <mxCell id="rhaK6J0jzwpchskZCCZA-146" value="" style="shape=tableRow;horizontal=0;startSize=0;swimlaneHead=0;swimlaneBody=0;fillColor=none;collapsible=0;dropTarget=0;points=[[0,0.5],[1,0.5]];portConstraint=eastwest;top=0;left=0;right=0;bottom=0;labelBackgroundColor=none;strokeColor=#0F8B8D;fontColor=#143642;rounded=1;" vertex="1" parent="rhaK6J0jzwpchskZCCZA-133">
          <mxGeometry y="150" width="160" height="30" as="geometry" />
        </mxCell>
        <mxCell id="rhaK6J0jzwpchskZCCZA-147" value="" style="shape=partialRectangle;connectable=0;fillColor=none;top=0;left=0;bottom=0;right=0;editable=1;overflow=hidden;labelBackgroundColor=none;strokeColor=#0F8B8D;fontColor=#143642;rounded=1;" vertex="1" parent="rhaK6J0jzwpchskZCCZA-146">
          <mxGeometry width="30" height="30" as="geometry">
            <mxRectangle width="30" height="30" as="alternateBounds" />
          </mxGeometry>
        </mxCell>
        <mxCell id="rhaK6J0jzwpchskZCCZA-148" value="Features" style="shape=partialRectangle;connectable=0;fillColor=none;top=0;left=0;bottom=0;right=0;align=left;spacingLeft=6;overflow=hidden;labelBackgroundColor=none;strokeColor=#0F8B8D;fontColor=#143642;rounded=1;" vertex="1" parent="rhaK6J0jzwpchskZCCZA-146">
          <mxGeometry x="30" width="130" height="30" as="geometry">
            <mxRectangle width="130" height="30" as="alternateBounds" />
          </mxGeometry>
        </mxCell>
        <mxCell id="rhaK6J0jzwpchskZCCZA-157" style="edgeStyle=orthogonalEdgeStyle;rounded=1;orthogonalLoop=1;jettySize=auto;html=1;startArrow=ERmandOne;startFill=0;endArrow=ERmandOne;endFill=0;jumpStyle=line;labelBackgroundColor=none;strokeColor=#A8201A;fontColor=default;" edge="1" parent="1" source="rhaK6J0jzwpchskZCCZA-154" target="rhaK6J0jzwpchskZCCZA-105">
          <mxGeometry relative="1" as="geometry">
            <Array as="points">
              <mxPoint x="-610" y="485" />
              <mxPoint x="-610" y="575" />
            </Array>
          </mxGeometry>
        </mxCell>
        <mxCell id="rhaK6J0jzwpchskZCCZA-158" style="edgeStyle=orthogonalEdgeStyle;rounded=1;orthogonalLoop=1;jettySize=auto;html=1;startArrow=ERoneToMany;startFill=0;endArrow=ERmandOne;endFill=0;jumpStyle=line;labelBackgroundColor=none;strokeColor=#A8201A;fontColor=default;" edge="1" parent="1" source="rhaK6J0jzwpchskZCCZA-150" target="rhaK6J0jzwpchskZCCZA-134">
          <mxGeometry relative="1" as="geometry">
            <Array as="points">
              <mxPoint x="-660" y="425" />
              <mxPoint x="-660" y="600" />
            </Array>
          </mxGeometry>
        </mxCell>
      </root>
    </mxGraphModel>
  </diagram>
</mxfile>
